<svg version="1.1" xmlns="http://www.w3.org/2000/svg" xmlns:xlink="http://www.w3.org/1999/xlink" width="974" height="576"><defs/><g transform="translate(0,0)"><g><rect fill="#ffffff" stroke="none" x="0" y="0" width="974" height="576"/></g><g transform="translate(0,0) matrix(1,0,0,1,269,434)"><g><g transform="translate(0,0) translate(0,0) scale(2.1,2)"><g><path fill="#FFFFFF" stroke="none" d="M 20 5 A 5 5 0 1 0 19.999997500000205 5.004999999166668 Z"/><g transform="scale(0.47619047619047616,0.5)"><path fill="none" stroke="#000000" d="M 31.5 0 C 37.29898935 0 42 4.477153 42 10 C 42 15.522846999999999 37.29898935 20 31.5 20 C 25.70101065 20 21 15.522846999999999 21 10 C 21 4.477153 25.70101065 0 31.5 0 Z" stroke-miterlimit="10" stroke-width="2"/></g></g><g><g transform="scale(0.47619047619047616,0.5)"><path fill="none" stroke="#000000" d="M 31.5 20 L 31.5 60" stroke-miterlimit="10" stroke-width="2"/></g></g><g><g transform="scale(0.47619047619047616,0.5)"><path fill="none" stroke="#000000" d="M 31.5 60 L 21 100" stroke-miterlimit="10" stroke-width="2"/></g></g><g><g transform="scale(0.47619047619047616,0.5)"><path fill="none" stroke="#000000" d="M 31.5 60 L 42 100" stroke-miterlimit="10" stroke-width="2"/></g></g><g><g transform="scale(0.47619047619047616,0.5)"><path fill="none" stroke="#000000" d="M 31.5 60 L 42 100" stroke-miterlimit="10" stroke-width="2"/></g></g><g><g transform="scale(0.47619047619047616,0.5)"><path fill="none" stroke="#000000" d="M 0 30 L 63 30" stroke-miterlimit="10" stroke-width="2"/></g></g></g></g></g><g transform="scale(1,1) matrix(1,0,0,1,271,434) translate(9.5,102)"><text fill="#000000" stroke="none" font-family="Arial" font-size="18px" font-style="normal" font-weight="normal" text-decoration="none" x="0" y="15">User</text></g><g transform="translate(0,0) matrix(1,0,0,1,854,222)"><g><g transform="translate(0,0) translate(0,0) scale(2.1,2)"><g><path fill="#FFFFFF" stroke="none" d="M 20 5 A 5 5 0 1 0 19.999997500000205 5.004999999166668 Z"/><g transform="scale(0.47619047619047616,0.5)"><path fill="none" stroke="#000000" d="M 31.5 0 C 37.29898935 0 42 4.477153 42 10 C 42 15.522846999999999 37.29898935 20 31.5 20 C 25.70101065 20 21 15.522846999999999 21 10 C 21 4.477153 25.70101065 0 31.5 0 Z" stroke-miterlimit="10" stroke-width="2"/></g></g><g><g transform="scale(0.47619047619047616,0.5)"><path fill="none" stroke="#000000" d="M 31.5 20 L 31.5 60" stroke-miterlimit="10" stroke-width="2"/></g></g><g><g transform="scale(0.47619047619047616,0.5)"><path fill="none" stroke="#000000" d="M 31.5 60 L 21 100" stroke-miterlimit="10" stroke-width="2"/></g></g><g><g transform="scale(0.47619047619047616,0.5)"><path fill="none" stroke="#000000" d="M 31.5 60 L 42 100" stroke-miterlimit="10" stroke-width="2"/></g></g><g><g transform="scale(0.47619047619047616,0.5)"><path fill="none" stroke="#000000" d="M 31.5 60 L 42 100" stroke-miterlimit="10" stroke-width="2"/></g></g><g><g transform="scale(0.47619047619047616,0.5)"><path fill="none" stroke="#000000" d="M 0 30 L 63 30" stroke-miterlimit="10" stroke-width="2"/></g></g></g></g></g><g transform="scale(1,1) matrix(1,0,0,1,856,222) translate(-41,102)"><text fill="#000000" stroke="none" font-family="Arial" font-size="18px" font-style="normal" font-weight="normal" text-decoration="none" x="0" y="15">Automated Tasks</text></g><g transform="translate(0,0) matrix(1,0,0,1,272,222)"><g><g transform="translate(0,0) translate(0,0) scale(2.1,2)"><g><path fill="#FFFFFF" stroke="none" d="M 20 5 A 5 5 0 1 0 19.999997500000205 5.004999999166668 Z"/><g transform="scale(0.47619047619047616,0.5)"><path fill="none" stroke="#000000" d="M 31.5 0 C 37.29898935 0 42 4.477153 42 10 C 42 15.522846999999999 37.29898935 20 31.5 20 C 25.70101065 20 21 15.522846999999999 21 10 C 21 4.477153 25.70101065 0 31.5 0 Z" stroke-miterlimit="10" stroke-width="2"/></g></g><g><g transform="scale(0.47619047619047616,0.5)"><path fill="none" stroke="#000000" d="M 31.5 20 L 31.5 60" stroke-miterlimit="10" stroke-width="2"/></g></g><g><g transform="scale(0.47619047619047616,0.5)"><path fill="none" stroke="#000000" d="M 31.5 60 L 21 100" stroke-miterlimit="10" stroke-width="2"/></g></g><g><g transform="scale(0.47619047619047616,0.5)"><path fill="none" stroke="#000000" d="M 31.5 60 L 42 100" stroke-miterlimit="10" stroke-width="2"/></g></g><g><g transform="scale(0.47619047619047616,0.5)"><path fill="none" stroke="#000000" d="M 31.5 60 L 42 100" stroke-miterlimit="10" stroke-width="2"/></g></g><g><g transform="scale(0.47619047619047616,0.5)"><path fill="none" stroke="#000000" d="M 0 30 L 63 30" stroke-miterlimit="10" stroke-width="2"/></g></g></g></g></g><g transform="scale(1,1) matrix(1,0,0,1,274,222) translate(4,102)"><text fill="#000000" stroke="none" font-family="Arial" font-size="18px" font-style="normal" font-weight="normal" text-decoration="none" x="0" y="15">Admin</text></g><g transform="translate(0,0) matrix(1,0,0,1,540.4396551724138,357.33478260869566)"><g><g transform="translate(0,0) scale(1.3500000000000008,0.6808695652173913)"><g><path fill="#FFFFFF" stroke="none" d="M 100 50 A 50 50 0 1 0 99.99997500000207 50.04999999166668 Z"/><g transform="scale(0.7407407407407404,1.4687100893997447)"><path fill="none" stroke="#000000" d="M 67.50000000000004 0 M 67.50000000000004 0 C 104.77921725000007 0 135.00000000000009 15.241786082608694 135.00000000000009 34.04347826086956 C 135.00000000000009 52.84517043913043 104.77921725000007 68.08695652173913 67.50000000000004 68.08695652173913 C 30.22078275000002 68.08695652173913 0 52.84517043913043 0 34.04347826086956 C 0 15.241786082608694 30.22078275000002 0 67.50000000000004 0 Z" stroke-miterlimit="10" stroke-width="2"/></g></g></g></g></g><g transform="scale(1,1) matrix(1,0,0,1,542.7874812593703,357.33478260869566) translate(8,14.043478260869563)"><text fill="#000000" stroke="none" font-family="Arial" font-size="18px" font-style="normal" font-weight="normal" text-decoration="none" x="27.652173913043526" y="15">Create </text><text fill="#000000" stroke="none" font-family="Arial" font-size="18px" font-style="normal" font-weight="normal" text-decoration="none" x="7.6521739130435265" y="36">Subscription</text></g><g transform="translate(0,0) matrix(1,0,0,1,537,474.6782608695653)"><g><g transform="translate(0,0) scale(1.4799999999999995,0.7464347826086956)"><g><path fill="#FFFFFF" stroke="none" d="M 100 50 A 50 50 0 1 0 99.99997500000207 50.04999999166668 Z"/><g transform="scale(0.6756756756756759,1.3397017707362537)"><path fill="none" stroke="#000000" d="M 73.99999999999997 0 M 73.99999999999997 0 C 114.86906779999995 0 147.99999999999994 16.709513631304347 147.99999999999994 37.32173913043478 C 147.99999999999994 57.93396462956521 114.86906779999995 74.64347826086956 73.99999999999997 74.64347826086956 C 33.13093219999999 74.64347826086956 0 57.93396462956521 0 37.32173913043478 C 0 16.709513631304347 33.13093219999999 0 73.99999999999997 0 Z" stroke-miterlimit="10" stroke-width="2"/></g></g></g></g></g><g transform="scale(1,1) matrix(1,0,0,1,539.5739130434782,474.6782608695653) translate(8,7.3217391304347785)"><text fill="#000000" stroke="none" font-family="Arial" font-size="18px" font-style="normal" font-weight="normal" text-decoration="none" x="22.926086956521715" y="15">Complete </text><text fill="#000000" stroke="none" font-family="Arial" font-size="18px" font-style="normal" font-weight="normal" text-decoration="none" x="21.926086956521715" y="36">Recurring </text><text fill="#000000" stroke="none" font-family="Arial" font-size="18px" font-style="normal" font-weight="normal" text-decoration="none" x="13.926086956521715" y="57">Subscription</text></g><g transform="translate(0,0) matrix(1,0,0,1,541,235.68695652173912)"><g><g transform="translate(0,0) scale(1.4399999999999997,0.7262608695652175)"><g><path fill="#FFFFFF" stroke="none" d="M 100 50 A 50 50 0 1 0 99.99997500000207 50.04999999166668 Z"/><g transform="scale(0.6944444444444445,1.3769157088122603)"><path fill="none" stroke="#000000" d="M 71.99999999999999 0 M 71.99999999999999 0 C 111.76449839999998 0 143.99999999999997 16.257905154782613 143.99999999999997 36.31304347826087 C 143.99999999999997 56.368181801739134 111.76449839999998 72.62608695652175 71.99999999999999 72.62608695652175 C 32.2355016 72.62608695652175 0 56.368181801739134 0 36.31304347826087 C 0 16.257905154782613 32.2355016 0 71.99999999999999 0 Z" stroke-miterlimit="10" stroke-width="2"/></g></g></g></g></g><g transform="scale(1,1) matrix(1,0,0,1,543.5043478260869,235.68695652173912) translate(8,16.313043478260873)"><text fill="#000000" stroke="none" font-family="Arial" font-size="18px" font-style="normal" font-weight="normal" text-decoration="none" x="23.49565217391303" y="15">Suspend </text><text fill="#000000" stroke="none" font-family="Arial" font-size="18px" font-style="normal" font-weight="normal" text-decoration="none" x="11.99565217391303" y="36">Subscription</text></g><g transform="matrix(1,0,0,1,331,268)"><g transform="translate(0,0)"><g transform="translate(-406,-191) translate(75,-77) matrix(1,0,0,1,0,0)"><g><path fill="none" stroke="#000000" d="M 335 272 L 541 272" stroke-miterlimit="10"/></g></g></g></g><g transform="matrix(1,0,0,1,681,268)"><g transform="translate(0,0)"><g transform="translate(-631,-188) translate(-50,-80) matrix(1,0,0,1,0,0)"><g><path fill="none" stroke="#000000" d="M 685 272 L 854 272" stroke-miterlimit="10"/></g></g></g></g><g transform="matrix(1,0,0,1,681,268)"><g transform="translate(0,0)"><g transform="translate(-733,-470) translate(52,202) matrix(1,0,0,1,0,0)"><g><path fill="none" stroke="#000000" d="M 685 512.0000000000001 L 854 272" stroke-miterlimit="10"/></g></g></g></g><g transform="matrix(1,0,0,1,328,387.3782608695652)"><g transform="translate(0,0)"><g transform="translate(-352,-368) translate(24,-19.378260869565224) matrix(1,0,0,1,0,0)"><g><path fill="none" stroke="#000000" d="M 332 484 L 540.4396551724138 391.3782608695652" stroke-miterlimit="10"/></g></g></g></g><g transform="matrix(1,0,0,1,331,268)"><g transform="translate(0,0)"><g transform="translate(-383,-323) translate(52,55) matrix(1,0,0,1,0,0)"><g><path fill="none" stroke="#000000" d="M 335 272 L 540.4396551724138 391.3782608695652" stroke-miterlimit="10"/></g></g></g></g><g transform="translate(0,0) matrix(1,0,0,1,547,118.70434782608697)"><g><g transform="translate(0,0) scale(1.3599999999999994,0.6859130434782608)"><g><path fill="#FFFFFF" stroke="none" d="M 100 50 A 50 50 0 1 0 99.99997500000207 50.04999999166668 Z"/><g transform="scale(0.7352941176470591,1.4579107505070996)"><path fill="none" stroke="#000000" d="M 67.99999999999997 0 M 67.99999999999997 0 C 105.55535959999995 0 135.99999999999994 15.35468820173913 135.99999999999994 34.29565217391304 C 135.99999999999994 53.23661614608695 105.55535959999995 68.59130434782608 67.99999999999997 68.59130434782608 C 30.44464039999999 68.59130434782608 0 53.23661614608695 0 34.29565217391304 C 0 15.35468820173913 30.44464039999999 0 67.99999999999997 0 Z" stroke-miterlimit="10" stroke-width="2"/></g></g></g></g></g><g transform="scale(1,1) matrix(1,0,0,1,549.3652173913043,118.70434782608697) translate(8,14.29565217391304)"><text fill="#000000" stroke="none" font-family="Arial" font-size="18px" font-style="normal" font-weight="normal" text-decoration="none" x="28.634782608695602" y="15">Modify </text><text fill="#000000" stroke="none" font-family="Arial" font-size="18px" font-style="normal" font-weight="normal" text-decoration="none" x="8.134782608695602" y="36">Subscription</text></g><g transform="matrix(1,0,0,1,331,149)"><g transform="translate(0,0)"><g transform="translate(-391,-110) translate(60,-39) matrix(1,0,0,1,0,0)"><g><path fill="none" stroke="#000000" d="M 335 272 L 547 153" stroke-miterlimit="10"/></g></g></g></g></g></svg>